<?xml version="1.0" encoding="UTF-8"?>
<svg width="200" height="200" viewBox="0 0 200 200" fill="none" xmlns="http://www.w3.org/2000/svg">
  <!-- Background circle -->
  <circle cx="100" cy="100" r="98" fill="#FFF" stroke="#8B4513" stroke-width="4"/>
  
  <!-- Spoon and fork -->
  <path d="M80 60C80 60 85 80 85 90C85 100 75 110 75 120C75 130 80 140 90 140C100 140 105 130 105 120C105 110 95 100 95 90C95 80 100 60 100 60" stroke="#8B4513" stroke-width="4"/>
  <path d="M120 60C120 60 125 80 125 90C125 100 115 110 115 120C115 130 120 140 130 140C140 140 145 130 145 120C145 110 135 100 135 90C135 80 140 60 140 60" stroke="#8B4513" stroke-width="4"/>
  
  <!-- Bowl -->
  <path d="M60 100C60 100 80 120 100 120C120 120 140 100 140 100" stroke="#8B4513" stroke-width="4"/>
  
  <!-- Decorative elements -->
  <path d="M40 80C40 80 60 90 80 90M120 90C140 90 160 80 160 80" stroke="#8B4513" stroke-width="4"/>
  <circle cx="100" cy="100" r="5" fill="#8B4513"/>
  
  <!-- Text -->
  <path d="M40 160C40 160 160 160 160 160" stroke="#8B4513" stroke-width="4"/>
  <text x="100" y="175" text-anchor="middle" font-family="Arial" font-size="14" fill="#8B4513">RASA NUSANTARA</text>
</svg>
